<?xml version="1.0" encoding="utf-8"?>
<!-- Generator: Adobe Illustrator 18.1.1, SVG Export Plug-In . SVG Version: 6.00 Build 0)  -->
<svg version="1.1" id="Layer_1" xmlns="http://www.w3.org/2000/svg" xmlns:xlink="http://www.w3.org/1999/xlink" x="0px" y="0px"
	 viewBox="0 0 249.5 127.5" enable-background="new 0 0 249.5 127.5" xml:space="preserve">
<path d="M88.5,105.3L20.4,35.2v66.8H8.6V7.6L77,76.8v-66h11.5V105.3z"/>
<path d="M237.3,66.5c-1.5,6.1-4.5,11.5-8.9,16c-6.7,6.8-15.2,10.3-25.5,10.3c-10.5,0-19.2-3.4-26-10.3c-4.5-4.5-7.5-9.9-9.1-15.9
	h-12.4c1.7,9.5,6,17.6,13,24.3c9.2,8.9,20.8,13.3,34.8,13.3c13.9,0,25.2-4.4,34-13.3c6.6-6.7,10.7-14.8,12.4-24.3H237.3z
	 M176.7,30.4c6.8-6.8,15.5-10.1,26.1-10.1c10.3,0,18.8,3.5,25.5,10.4c4.5,4.7,7.5,10.2,9,16.4h12.1c-1.7-9.3-5.9-17.4-12.8-24.2
	c-9.1-9.1-20.3-13.7-33.6-13.7c-13.5,0-25,4.5-34.4,13.7c-7.1,6.9-11.6,15-13.3,24.3h12.2C168.9,40.7,172,35.1,176.7,30.4z"/>
<g>
	<path d="M17.1,114.9h-6.4v2.1h6.1c1,0,1.6,0.2,2,0.5c0.3,0.3,0.5,0.9,0.5,1.8v1.3c0,0.9-0.2,1.5-0.5,1.8c-0.3,0.3-1,0.5-2,0.5h-6
		c-1,0-1.6-0.2-2-0.5c-0.3-0.3-0.5-0.9-0.5-1.8v-0.3l2-0.4v1.2h7v-2.2h-6.1c-1,0-1.6-0.2-1.9-0.5c-0.3-0.3-0.5-0.9-0.5-1.8v-1.1
		c0-0.9,0.2-1.5,0.5-1.8c0.3-0.3,1-0.5,1.9-0.5h5.6c0.9,0,1.5,0.2,1.9,0.5c0.3,0.3,0.5,0.9,0.5,1.7v0.2l-2,0.5V114.9z"/>
	<path d="M62.1,122.9l5.6-9.8h2.2l5.6,9.8H73l-1.2-2.1h-6.2l-1.1,2.1H62.1z M66.5,119h4.3l-2.1-4L66.5,119z"/>
	<path d="M118.7,122.9v-9.8h2.3v8h7.3v1.8H118.7z"/>
	<path d="M171.5,115.4c0-0.9,0.2-1.5,0.5-1.8c0.3-0.3,1-0.5,1.9-0.5h7.2c1,0,1.6,0.2,1.9,0.5c0.3,0.3,0.5,0.9,0.5,1.8v5.2
		c0,0.9-0.2,1.5-0.5,1.8c-0.3,0.3-1,0.5-1.9,0.5H174c-1,0-1.6-0.2-1.9-0.5c-0.3-0.3-0.5-0.9-0.5-1.8V115.4z M173.8,121.1h7.5v-6.2
		h-7.5V121.1z"/>
	<path d="M228.4,122.9v-9.8h1.6l6.9,5.8c0.2,0.2,0.4,0.4,0.6,0.5c0.2,0.2,0.3,0.3,0.5,0.5c0-0.6-0.1-0.9-0.1-1.2s0-0.4,0-0.5v-5.2
		h2.1v9.8h-1.6l-7.2-6.1c-0.2-0.2-0.3-0.3-0.5-0.4c-0.1-0.1-0.3-0.3-0.4-0.4c0,0.3,0.1,0.6,0.1,0.9c0,0.3,0,0.5,0,0.7v5.3H228.4z"/>
	<path d="M159.9,62V51.1h7c2,0,3.5,0.5,4.6,1.4c1.1,0.9,1.6,2.3,1.6,4c0,1-0.2,1.9-0.6,2.7c-0.4,0.8-1,1.4-1.8,1.9
		c-0.5,0.3-1.1,0.5-1.8,0.6c-0.7,0.1-1.6,0.2-2.7,0.2H159.9z M162.5,60h3.3c1.7,0,3-0.3,3.7-0.8c0.7-0.5,1.1-1.4,1.1-2.7
		c0-1.1-0.3-2-0.9-2.5c-0.6-0.6-1.5-0.9-2.7-0.9h-4.5V60z"/>
	<path d="M179,53.7c0-1,0.2-1.7,0.6-2c0.4-0.4,1.1-0.5,2.1-0.5h8c1,0,1.8,0.2,2.1,0.5c0.4,0.4,0.6,1,0.6,2v5.7c0,1-0.2,1.7-0.6,2
		c-0.4,0.4-1.1,0.5-2.1,0.5h-8c-1.1,0-1.8-0.2-2.1-0.5c-0.4-0.4-0.6-1-0.6-2V53.7z M181.6,60h8.3v-6.9h-8.3V60z"/>
	<path d="M199.3,62V51.1h2.5V60h8.1v2H199.3z"/>
	<path d="M224.3,53.1h-6.8V60h6.8v-2.3l2.5,0.5v1.3c0,1-0.2,1.7-0.6,2c-0.4,0.4-1.1,0.5-2.1,0.5h-6.5c-1.1,0-1.8-0.2-2.1-0.5
		c-0.4-0.4-0.6-1-0.6-2v-5.7c0-1,0.2-1.7,0.6-2c0.4-0.4,1.1-0.5,2.1-0.5h6.5c1,0,1.8,0.2,2.1,0.5c0.4,0.4,0.6,1,0.6,2v1l-2.5,0.4
		V53.1z"/>
	<path d="M233.6,62V51.1h11.1V53h-8.6v2.4h5v1.8h-5V60h8.7v2H233.6z"/>
</g>
<polygon points="111.8,21.3 149.3,21.3 149.3,10.9 99.9,10.9 99.9,101.9 149.3,101.9 149.3,91.5 111.8,91.5 111.8,62 149.3,62 
	149.3,51.6 111.8,51.6 111.8,47.4 "/>
</svg>
